<?xml version="1.0" encoding="UTF-8" standalone="yes"?>
<!DOCTYPE svg PUBLIC "-//W3C//DTD SVG 1.1//EN" "http://www.w3.org/Graphics/SVG/1.1/DTD/svg11.dtd">

<svg width="100" height="100" viewBox="0 0 100 100" xmlns="http://www.w3.org/2000/svg" xmlns:xlink="http://www.w3.org/1999/xlink" version="1.1" baseProfile="full">
    <g transform="scale(1.000000,-1.000000) translate(0,-100)">
        <path d="M 17.866865 18.550380 L 17.358165 19.050280 L 15.591265 21.172680 L 14.066565 23.424980 L 12.785665 25.787880 L 11.750065 28.242280 L 10.961265 30.768980 L 10.420765 33.348680 L 10.129965 35.962380 L 10.090365 38.590780 L 10.303665 41.214580 L 10.771065 43.814780 L 11.494265 46.372080 L 12.474765 48.867280 L 13.713865 51.281280 L 15.213265 53.594780 L 16.974365 55.788680 L 18.900265 57.749280 L 20.970265 59.475280 L 23.166265 60.965780 L 25.470565 62.219980 L 27.865065 63.236980 L 30.331965 64.015880 L 32.853165 64.555880 L 35.410865 64.856080 L 37.987165 64.915680 L 40.563965 64.733680 L 43.123465 64.309380 L 45.647665 63.641780 L 48.118765 62.730080 L 50.518665 61.573480 L 52.829465 60.170980 L 55.033365 58.521780 L 46.602665 49.043280 L 71.143965 49.213680 L 68.451165 73.607380 L 61.089165 65.330280 L 58.161365 67.559980 L 55.084865 69.457480 L 51.884165 71.024080 L 48.584065 72.260980 L 45.208865 73.169480 L 41.783365 73.750780 L 38.332065 74.006080 L 34.879565 73.936780 L 31.450465 73.544080 L 28.069265 72.829180 L 24.760565 71.793380 L 21.549065 70.437880 L 18.459265 68.764080 L 15.515765 66.772980 L 12.743065 64.466080 L 10.165865 61.844480 L 7.824165 58.926680 L 5.829765 55.847480 L 4.180765 52.632780 L 2.875065 49.308380 L 1.910965 45.900180 L 1.286565 42.433980 L 0.999965 38.935680 L 1.049265 35.431080 L 1.432565 31.945980 L 2.147965 28.506280 L 3.193665 25.137780 L 4.567765 21.866380 L 6.268365 18.717880 L 8.293465 15.718180 L 10.641365 12.893080 L 11.811465 11.742380 Z" transform="scale(1.000000,1.000000) translate(12.747935,9.468820)" opacity="1.000000"></path>
    </g>
</svg>