<?xml version="1.0" encoding="UTF-8" standalone="yes"?>
<!DOCTYPE svg PUBLIC "-//W3C//DTD SVG 1.1//EN" "http://www.w3.org/Graphics/SVG/1.1/DTD/svg11.dtd">

<svg width="100" height="100" viewBox="0 0 100 100" xmlns="http://www.w3.org/2000/svg" xmlns:xlink="http://www.w3.org/1999/xlink" version="1.1" baseProfile="full">
    <g transform="scale(1.000000,-1.000000) translate(0,-100)">
        <path d="M 64.925897 13.469133 L 67.214497 16.342333 L 69.176797 19.383433 L 70.811497 22.566433 L 72.117197 25.865633 L 73.092597 29.254933 L 73.736397 32.708633 L 74.047097 36.200833 L 74.023497 39.705633 L 73.664197 43.197133 L 72.967897 46.649433 L 71.933197 50.036733 L 70.558797 53.333133 L 68.843297 56.512733 L 66.785397 59.549733 L 64.383697 62.418133 L 61.752597 64.985433 L 58.932697 67.234133 L 55.948497 69.163433 L 52.824597 70.772733 L 49.585697 72.061033 L 46.256397 73.027833 L 42.861197 73.672233 L 39.424797 73.993533 L 35.971697 73.991033 L 32.526497 73.664033 L 29.113997 73.011633 L 25.758597 72.033233 L 22.484997 70.728033 L 19.317697 69.095333 L 16.281397 67.134333 L 13.400697 64.844333 L 5.868497 72.966233 L 3.683497 48.522733 L 28.222097 48.862533 L 19.596497 58.163433 L 21.765497 59.858033 L 24.046597 61.308233 L 26.421897 62.514433 L 28.873397 63.477233 L 31.383097 64.197133 L 33.933097 64.674633 L 36.505497 64.910033 L 39.082297 64.904133 L 41.645597 64.657133 L 44.177497 64.169633 L 46.659897 63.442233 L 49.074997 62.475333 L 51.404697 61.269333 L 53.631297 59.824833 L 55.736597 58.142333 L 57.702797 56.222233 L 59.508997 54.065533 L 61.056097 51.783833 L 62.345197 49.396133 L 63.377197 46.921933 L 64.153397 44.380333 L 64.674797 41.790533 L 64.942497 39.171733 L 64.957597 36.543233 L 64.721297 33.924233 L 64.234497 31.333833 L 63.498397 28.791433 L 62.514097 26.316133 L 61.282597 23.927133 L 59.805197 21.643733 L 58.082797 19.485133 L 57.584697 18.974733 L 63.780097 12.294333 Z" transform="scale(1.000000,1.000000) translate(12.583403,9.050467)" opacity="1.000000"></path>
    </g>
</svg>