<?xml version="1.0" encoding="UTF-8" standalone="yes"?>
<!DOCTYPE svg PUBLIC "-//W3C//DTD SVG 1.1//EN" "http://www.w3.org/Graphics/SVG/1.1/DTD/svg11.dtd">

<svg width="100" height="100" viewBox="0 0 100 100" xmlns="http://www.w3.org/2000/svg" xmlns:xlink="http://www.w3.org/1999/xlink" version="1.1" baseProfile="full">
    <g transform="scale(1.000000,-1.000000) translate(0,-100)">
        <path d="M 85.405460 48.321986 C 85.405460 68.802623 68.802623 85.405460 48.321986 85.405460 C 27.841349 85.405460 11.238512 68.802623 11.238512 48.321986 C 11.238512 27.841349 27.841349 11.238512 48.321986 11.238512 C 68.802623 11.238512 85.405460 27.841349 85.405460 48.321986 Z M 95.643972 48.321986 C 95.643972 22.186775 74.457197 1.000000 48.321986 1.000000 C 22.186775 1.000000 1.000000 22.186775 1.000000 48.321986 C 1.000000 74.457197 22.186775 95.643972 48.321986 95.643972 C 74.457197 95.643972 95.643972 74.457197 95.643972 48.321986 Z" transform="scale(1.000000,1.000000) translate(1.655203,1.678014)" opacity="1.000000"></path>
        <path d="M 3.427639 23.929681 L 12.864471 24.171923 C 13.589425 29.697372 13.807711 35.449980 13.940811 41.018907 C 14.012685 46.628653 13.993164 52.234849 13.498030 57.826848 L 1.070872 57.509181 C 0.824192 50.546246 1.257213 43.450211 1.818011 36.503248 C 2.212876 32.291059 2.654769 28.109926 3.428527 23.929681 Z M 1.730164 12.981714 C 1.719517 11.516721 1.646754 9.326773 1.576655 7.210473 C 1.503893 5.002778 1.428469 2.721434 1.416046 1.088734 L 13.847641 1.000000 C 13.858288 2.470318 13.931051 4.670027 14.002038 6.798749 C 14.074800 8.994909 14.150224 11.265604 14.161760 12.891207 L 1.730166 12.982602 Z" transform="scale(1.000000,1.000000) translate(42.419120,20.586576)" opacity="1.000000"></path>
    </g>
</svg>